<svg xmlns="http://www.w3.org/2000/svg" xmlns:xlink="http://www.w3.org/1999/xlink" width="363" height="115"><defs><path id="path-1" d="M0 .216h66.034v30.55H0z"/><path id="path-3" d="M0 115h362.725V.216H0z"/></defs><g id="Osteria-Landing-page" fill="none" fill-rule="evenodd" transform="translate(-459 -368)"><g id="Osteria-Logo" transform="translate(459 368)"><path id="Fill-1" fill="#FFF" d="M327 6.243L354.721 69H363L334.19 4z"/><path id="Fill-2" fill="#FFF" d="M343 52.557l-2.922-7.018-16.827-.091 8.438-20.065L327.784 16 305 70l7.94-.036 7.382-17.552z"/><path id="Fill-3" fill="#FFF" d="M184 4h37.942v5.929H190.99v53.149H222V69h-38z"/><g id="Group-31"><path id="Fill-4" fill="#FFF" d="M59.372 38.457c1.797 0 3.475-.01 5.154.006.491.006.981.088 1.466.134-.45 13.476-11.644 29.793-32.21 30.55C16.577 69.78 1.234 56.084.04 38.616h6.72c1.328 8.415 5.02 15.53 12.479 20.3 5.104 3.261 10.697 4.381 16.695 3.869 11.84-1.009 20.543-9.912 23.438-24.33"/><g id="Group-8"><mask id="mask-2" fill="#fff"><use xlink:href="#path-1"/></mask><path id="Fill-6" fill="#FFF" d="M6.674 30.765H0C1.47 13.138 16.406-.29 33.718.23 53 .81 65.263 15.768 66.034 30.747h-6.721C58.17 22.702 54.716 15.9 47.911 11.11 43.207 7.8 37.95 6.276 32.175 6.493c-13.058.487-21.425 8.39-25.5 24.272" mask="url(#mask-2)"/></g><path id="Fill-9" fill="#FFF" d="M102.228 31.95c7.312.217 13.885 4.691 16.181 10.87 2.752 7.406.774 15.512-5.071 20.768-11.25 10.116-31.558 5.754-37.592-8.08-.295-.677-.509-1.388-.804-2.205 1.93-.796 3.772-1.554 5.715-2.353.287.546.502.895.66 1.267 4.012 9.459 14.618 13.453 24.062 9.056 5.29-2.46 7.912-6.995 7.43-12.84-.41-4.943-3.669-8.427-9.327-9.966-.886-.24-1.772-.475-2.808-.753l1.554-5.764"/><mask id="mask-4" fill="#fff"><use xlink:href="#path-3"/></mask><path id="Fill-11" fill="#FFF" d="M288.915 67.214h6.605V2.172h-6.605z" mask="url(#mask-4)"/><path id="Fill-13" fill="#FFF" d="M113.326 17.914C109.118 8.436 100.974 4.387 92.112 7.1c-5.496 1.68-8.78 5.932-8.735 11.305.044 5.366 3.152 9.195 8.827 10.88.72.212 1.44.42 2.42.706-.526 1.983-1.03 3.888-1.589 6.004-6.95-1.222-12.38-4.383-15.098-10.917-2.625-6.31-1.828-12.475 2.6-17.772 9.996-11.957 32.27-8.038 37.663 6.54.2.54.317 1.112.548 1.932l-5.422 2.137" mask="url(#mask-4)"/><path id="Fill-14" fill="#FFF" d="M146.934 67.143h6.641V15.801h-6.641z" mask="url(#mask-4)"/><path id="Fill-15" fill="#FFF" d="M126.619 8.003h47.338V2.205h-47.338z" mask="url(#mask-4)"/><path id="Fill-16" fill="#FFF" d="M198.485 37.517h18.341V31.75h-18.341z" mask="url(#mask-4)"/><path id="Fill-17" fill="#FFF" d="M257.22 36.289l-.337-.382-1.281-1.697-6.865 3.344 22.178 29.4h9.457z" mask="url(#mask-4)"/><path id="Fill-18" fill="#FFF" d="M257.486 8.777c3.65.044 6.829 1.492 8.949 4.072 2.171 2.643 2.983 6.146 2.283 9.862-.671 3.556-2.712 6.22-6.238 8.142l-.298.155 4.017 5.28c4.707-1.957 8.177-6.056 9.545-11.289 1.52-5.8.168-11.918-3.614-16.36-6.117-7.191-14.534-6.69-21.951-6.249l-.261.016V8.77l2.631-.005c1.675-.007 3.308-.01 4.937.012" mask="url(#mask-4)"/><path id="Fill-19" fill="#FFF" d="M235.67 66.954h7.06V2.33h-7.06z" mask="url(#mask-4)"/><path id="Fill-20" fill="#FFF" d="M42.141 111.095c.383-.349.573-.83.573-1.443 0-.613-.182-1.101-.548-1.467-.367-.365-.84-.548-1.422-.548h-3.267v3.98h3.218c.581 0 1.064-.173 1.446-.522zm-4.664-6.69h2.793c.616 0 1.11-.158 1.485-.471.373-.317.56-.78.56-1.395 0-.628-.187-1.107-.56-1.43-.375-.323-.87-.485-1.485-.485h-2.793v3.781zm8.529 3.034c.7.812 1.048 1.766 1.048 2.86 0 1.393-.512 2.5-1.533 3.32-1.023.822-2.45 1.232-4.277 1.232h-8.03V97.393h7.605c1.196 0 2.236.197 3.118.596.88.397 1.554.945 2.02 1.641.464.697.698 1.474.698 2.338 0 .993-.303 1.829-.91 2.5-.608.67-1.46 1.171-2.557 1.504 1.181.165 2.12.655 2.818 1.467z" mask="url(#mask-4)"/><path id="Fill-21" fill="#FFF" d="M67.828 108.682l-2.07-6.217-2.07 6.217h4.14zm1.072 3.234h-6.285l-.972 2.935h-4.538l6.084-17.51h5.189l6.06 17.51h-4.564l-.974-2.935z" mask="url(#mask-4)"/><path id="Fill-22" fill="#FFF" d="M89.525 104.828h2.644c.648 0 1.16-.191 1.534-.571.374-.382.561-.888.561-1.519 0-.611-.191-1.117-.574-1.516-.382-.397-.888-.598-1.521-.598h-2.644v4.204zm4.44 10.023l-3.942-6.789h-.498v6.789h-4.264V97.393h6.908c1.363 0 2.532.247 3.504.745.974.498 1.704 1.153 2.194 1.964.491.813.736 1.693.736 2.636 0 1.013-.308 2-.922 2.96-.616.962-1.622 1.643-3.018 2.04l4.289 7.113h-4.988z" mask="url(#mask-4)"/><path id="Fill-23" fill="#FFF" d="M139.453 108.086h-4.314v4.401h-4.091v-4.401h-4.314v-3.854h4.314v-4.429h4.091v4.43h4.314z" mask="url(#mask-4)"/><path id="Fill-24" fill="#FFF" d="M176.438 106.122l7.207 8.73h-5.487l-5.885-7.712v7.711h-4.264V97.392h4.264v7.66l5.786-7.66h5.586z" mask="url(#mask-4)"/><path id="Fill-25" fill="#FFF" d="M194.692 114.851h4.265V97.393h-4.265z" mask="url(#mask-4)"/><path id="Fill-26" fill="#FFF" d="M224.046 97.393v3.231h-4.787v14.227h-4.266v-14.227h-4.764v-3.231z" mask="url(#mask-4)"/><path id="Fill-27" fill="#FFF" d="M248.461 98.685c1.513 1.028 2.569 2.453 3.168 4.276h-5.089c-.348-.678-.789-1.167-1.32-1.466-.534-.298-1.181-.447-1.945-.447-1.416 0-2.54.455-3.381 1.367-.84.912-1.26 2.13-1.26 3.655 0 1.527.42 2.746 1.26 3.657.84.912 1.965 1.368 3.38 1.368.765 0 1.412-.149 1.945-.448.532-.297.973-.787 1.321-1.468h5.089c-.599 1.826-1.655 3.252-3.168 4.279-1.512 1.028-3.242 1.542-5.186 1.542-1.648 0-3.156-.383-4.528-1.145a8.51 8.51 0 0 1-3.254-3.182c-.798-1.36-1.198-2.893-1.198-4.603 0-1.706.4-3.24 1.198-4.6a8.513 8.513 0 0 1 3.254-3.183c1.372-.763 2.88-1.144 4.528-1.144 1.944 0 3.674.514 5.186 1.542" mask="url(#mask-4)"/><path id="Fill-28" fill="#FFF" d="M278.388 97.393v17.457h-4.264v-7.237h-6.76v7.237H263.1V97.393h4.264v6.987h6.76v-6.987z" mask="url(#mask-4)"/><path id="Fill-29" fill="#FFF" d="M295.121 100.575v3.755h5.587v3.233h-5.587v4.054h6.334v3.234h-10.598v-17.51h10.598v3.234z" mask="url(#mask-4)"/><path id="Fill-30" fill="#FFF" d="M329.512 114.851h-4.264l-7.133-11.018v11.018h-4.264V97.342h4.264l7.133 11.017V97.342h4.264z" mask="url(#mask-4)"/></g></g></g></svg>